<svg width="204" height="174" viewBox="0 0 204 174" fill="none" xmlns="http://www.w3.org/2000/svg">
<path d="M126 1H36V79H126V1Z" fill="white" stroke="black" stroke-width="1.5" stroke-linecap="round" stroke-linejoin="round"/>
<path d="M126 31H150L168 49V79H126V31Z" fill="white" stroke="black" stroke-width="1.5" stroke-linecap="round" stroke-linejoin="round"/>
<path d="M63.0001 91C71.2844 91 78.0001 84.2843 78.0001 76C78.0001 67.7157 71.2844 61 63.0001 61C54.7159 61 48.0001 67.7157 48.0001 76C48.0001 84.2843 54.7159 91 63.0001 91Z" fill="white" stroke="black" stroke-width="1.5" stroke-linecap="round" stroke-linejoin="round"/>
<path d="M141 91C149.284 91 156 84.2843 156 76C156 67.7157 149.284 61 141 61C132.716 61 126 67.7157 126 76C126 84.2843 132.716 91 141 91Z" fill="white" stroke="black" stroke-width="1.5" stroke-linecap="round" stroke-linejoin="round"/>
<path d="M53.1152 124H48.3984V115.598H52.9277V116.781H49.793V119.16H52.6816V120.338H49.793V122.822H53.1152V124ZM61.7344 124H60.2109L56.1973 117.824C56.0957 117.668 56.0117 117.506 55.9453 117.338H55.9102C55.9414 117.518 55.957 117.902 55.957 118.492V124H54.6094V115.598H56.2324L60.1113 121.627C60.2754 121.877 60.3809 122.049 60.4277 122.143H60.4512C60.4121 121.92 60.3926 121.543 60.3926 121.012V115.598H61.7344V124ZM70.4062 115.598L67.3887 124H65.8301L62.8652 115.598H64.3887L66.4629 121.973C66.5293 122.176 66.5801 122.412 66.6152 122.682H66.6387C66.666 122.459 66.7227 122.219 66.8086 121.961L68.9297 115.598H70.4062ZM72.9492 124H71.5137V115.598H72.9492V124ZM78.4863 124.141C77.2754 124.141 76.3047 123.748 75.5742 122.963C74.8477 122.178 74.4844 121.156 74.4844 119.898C74.4844 118.547 74.8555 117.469 75.5977 116.664C76.3398 115.859 77.3477 115.457 78.6211 115.457C79.8008 115.457 80.75 115.848 81.4688 116.629C82.1914 117.41 82.5527 118.432 82.5527 119.693C82.5527 121.064 82.1836 122.148 81.4453 122.945C80.707 123.742 79.7207 124.141 78.4863 124.141ZM78.5508 116.682C77.7812 116.682 77.1543 116.969 76.6699 117.543C76.1895 118.117 75.9492 118.873 75.9492 119.811C75.9492 120.744 76.1836 121.496 76.6523 122.066C77.1211 122.637 77.7344 122.922 78.4922 122.922C79.2969 122.922 79.9316 122.65 80.3965 122.107C80.8613 121.564 81.0938 120.805 81.0938 119.828C81.0938 118.824 80.8672 118.049 80.4141 117.502C79.9648 116.955 79.3438 116.682 78.5508 116.682ZM83.707 123.666V122.23C83.8359 122.348 83.9883 122.453 84.1641 122.547C84.3438 122.641 84.5332 122.721 84.7324 122.787C84.9316 122.85 85.1309 122.898 85.3301 122.934C85.5293 122.969 85.7129 122.986 85.8809 122.986C86.4668 122.986 86.9023 122.889 87.1875 122.693C87.4766 122.498 87.6211 122.215 87.6211 121.844C87.6211 121.645 87.5723 121.473 87.4746 121.328C87.3809 121.18 87.248 121.045 87.0762 120.924C86.9043 120.803 86.7012 120.688 86.4668 120.578C86.2363 120.465 85.9883 120.348 85.7227 120.227C85.4375 120.074 85.1719 119.92 84.9258 119.764C84.6797 119.607 84.4648 119.436 84.2812 119.248C84.1016 119.057 83.959 118.842 83.8535 118.604C83.752 118.365 83.7012 118.086 83.7012 117.766C83.7012 117.371 83.7891 117.029 83.9648 116.74C84.1445 116.447 84.3789 116.207 84.668 116.02C84.9609 115.828 85.293 115.688 85.6641 115.598C86.0352 115.504 86.4141 115.457 86.8008 115.457C87.6797 115.457 88.3203 115.557 88.7227 115.756V117.133C88.2461 116.789 87.6328 116.617 86.8828 116.617C86.6758 116.617 86.4688 116.637 86.2617 116.676C86.0586 116.715 85.875 116.779 85.7109 116.869C85.5508 116.959 85.4199 117.074 85.3184 117.215C85.2168 117.355 85.166 117.525 85.166 117.725C85.166 117.912 85.2051 118.074 85.2832 118.211C85.3613 118.348 85.4746 118.473 85.623 118.586C85.7754 118.699 85.959 118.811 86.1738 118.92C86.3926 119.025 86.6445 119.141 86.9297 119.266C87.2227 119.418 87.498 119.578 87.7559 119.746C88.0176 119.914 88.2461 120.1 88.4414 120.303C88.6406 120.506 88.7969 120.732 88.9102 120.982C89.0273 121.229 89.0859 121.51 89.0859 121.826C89.0859 122.252 89 122.611 88.8281 122.904C88.6562 123.197 88.4238 123.436 88.1309 123.619C87.8418 123.803 87.5078 123.936 87.1289 124.018C86.75 124.1 86.3496 124.141 85.9277 124.141C85.7871 124.141 85.6133 124.129 85.4062 124.105C85.2031 124.086 84.9941 124.055 84.7793 124.012C84.5645 123.973 84.3613 123.924 84.1699 123.865C83.9785 123.807 83.8242 123.74 83.707 123.666ZM93.5508 123.666V122.23C93.6797 122.348 93.832 122.453 94.0078 122.547C94.1875 122.641 94.377 122.721 94.5762 122.787C94.7754 122.85 94.9746 122.898 95.1738 122.934C95.373 122.969 95.5566 122.986 95.7246 122.986C96.3105 122.986 96.7461 122.889 97.0312 122.693C97.3203 122.498 97.4648 122.215 97.4648 121.844C97.4648 121.645 97.416 121.473 97.3184 121.328C97.2246 121.18 97.0918 121.045 96.9199 120.924C96.748 120.803 96.5449 120.688 96.3105 120.578C96.0801 120.465 95.832 120.348 95.5664 120.227C95.2812 120.074 95.0156 119.92 94.7695 119.764C94.5234 119.607 94.3086 119.436 94.125 119.248C93.9453 119.057 93.8027 118.842 93.6973 118.604C93.5957 118.365 93.5449 118.086 93.5449 117.766C93.5449 117.371 93.6328 117.029 93.8086 116.74C93.9883 116.447 94.2227 116.207 94.5117 116.02C94.8047 115.828 95.1367 115.688 95.5078 115.598C95.8789 115.504 96.2578 115.457 96.6445 115.457C97.5234 115.457 98.1641 115.557 98.5664 115.756V117.133C98.0898 116.789 97.4766 116.617 96.7266 116.617C96.5195 116.617 96.3125 116.637 96.1055 116.676C95.9023 116.715 95.7188 116.779 95.5547 116.869C95.3945 116.959 95.2637 117.074 95.1621 117.215C95.0605 117.355 95.0098 117.525 95.0098 117.725C95.0098 117.912 95.0488 118.074 95.127 118.211C95.2051 118.348 95.3184 118.473 95.4668 118.586C95.6191 118.699 95.8027 118.811 96.0176 118.92C96.2363 119.025 96.4883 119.141 96.7734 119.266C97.0664 119.418 97.3418 119.578 97.5996 119.746C97.8613 119.914 98.0898 120.1 98.2852 120.303C98.4844 120.506 98.6406 120.732 98.7539 120.982C98.8711 121.229 98.9297 121.51 98.9297 121.826C98.9297 122.252 98.8438 122.611 98.6719 122.904C98.5 123.197 98.2676 123.436 97.9746 123.619C97.6855 123.803 97.3516 123.936 96.9727 124.018C96.5938 124.1 96.1934 124.141 95.7715 124.141C95.6309 124.141 95.457 124.129 95.25 124.105C95.0469 124.086 94.8379 124.055 94.623 124.012C94.4082 123.973 94.2051 123.924 94.0137 123.865C93.8223 123.807 93.668 123.74 93.5508 123.666ZM101.906 124H100.471V115.598H101.906V124ZM111.105 124H109.582L105.568 117.824C105.467 117.668 105.383 117.506 105.316 117.338H105.281C105.312 117.518 105.328 117.902 105.328 118.492V124H103.98V115.598H105.604L109.482 121.627C109.646 121.877 109.752 122.049 109.799 122.143H109.822C109.783 121.92 109.764 121.543 109.764 121.012V115.598H111.105V124ZM122.355 123.648C121.723 123.977 120.936 124.141 119.994 124.141C118.775 124.141 117.799 123.756 117.064 122.986C116.33 122.217 115.963 121.207 115.963 119.957C115.963 118.613 116.375 117.527 117.199 116.699C118.027 115.871 119.072 115.457 120.334 115.457C121.146 115.457 121.82 115.572 122.355 115.803V117.186C121.789 116.85 121.164 116.682 120.48 116.682C119.57 116.682 118.832 116.973 118.266 117.555C117.703 118.137 117.422 118.914 117.422 119.887C117.422 120.812 117.686 121.551 118.213 122.102C118.74 122.648 119.434 122.922 120.293 122.922C121.086 122.922 121.773 122.734 122.355 122.359V123.648ZM130.852 124H129.322L128.566 121.861H125.262L124.535 124H123.012L126.158 115.598H127.729L130.852 124ZM128.197 120.725L127.031 117.373C126.996 117.264 126.959 117.088 126.92 116.846H126.896C126.861 117.068 126.822 117.244 126.779 117.373L125.625 120.725H128.197ZM138.504 124H136.875L135.533 121.75C135.412 121.543 135.293 121.367 135.176 121.223C135.062 121.074 134.945 120.953 134.824 120.859C134.707 120.766 134.578 120.697 134.438 120.654C134.297 120.611 134.139 120.59 133.963 120.59H133.4V124H132.012V115.598H134.777C135.172 115.598 135.535 115.645 135.867 115.738C136.199 115.832 136.488 115.975 136.734 116.166C136.98 116.354 137.172 116.59 137.309 116.875C137.449 117.156 137.52 117.486 137.52 117.865C137.52 118.162 137.475 118.436 137.385 118.686C137.299 118.932 137.174 119.152 137.01 119.348C136.85 119.539 136.654 119.703 136.424 119.84C136.197 119.977 135.941 120.082 135.656 120.156V120.18C135.809 120.266 135.941 120.361 136.055 120.467C136.168 120.568 136.275 120.674 136.377 120.783C136.479 120.893 136.578 121.018 136.676 121.158C136.777 121.295 136.889 121.455 137.01 121.639L138.504 124ZM133.4 116.729V119.459H134.561C134.775 119.459 134.973 119.426 135.152 119.359C135.336 119.293 135.494 119.197 135.627 119.072C135.76 118.947 135.863 118.795 135.938 118.615C136.012 118.436 136.049 118.234 136.049 118.012C136.049 117.609 135.922 117.295 135.668 117.068C135.414 116.842 135.049 116.729 134.572 116.729H133.4ZM145.893 123.426C145.018 123.902 144.043 124.141 142.969 124.141C141.727 124.141 140.721 123.754 139.951 122.98C139.182 122.207 138.797 121.184 138.797 119.91C138.797 118.609 139.217 117.543 140.057 116.711C140.9 115.875 141.971 115.457 143.268 115.457C144.201 115.457 144.986 115.594 145.623 115.867V117.303C144.979 116.873 144.211 116.658 143.32 116.658C142.426 116.658 141.691 116.953 141.117 117.543C140.547 118.133 140.262 118.896 140.262 119.834C140.262 120.799 140.508 121.559 141 122.113C141.492 122.664 142.16 122.939 143.004 122.939C143.582 122.939 144.082 122.828 144.504 122.605V120.607H142.734V119.436H145.893V123.426ZM151.166 124.141C149.955 124.141 148.984 123.748 148.254 122.963C147.527 122.178 147.164 121.156 147.164 119.898C147.164 118.547 147.535 117.469 148.277 116.664C149.02 115.859 150.027 115.457 151.301 115.457C152.48 115.457 153.43 115.848 154.148 116.629C154.871 117.41 155.232 118.432 155.232 119.693C155.232 121.064 154.863 122.148 154.125 122.945C153.387 123.742 152.4 124.141 151.166 124.141ZM151.23 116.682C150.461 116.682 149.834 116.969 149.35 117.543C148.869 118.117 148.629 118.873 148.629 119.811C148.629 120.744 148.863 121.496 149.332 122.066C149.801 122.637 150.414 122.922 151.172 122.922C151.977 122.922 152.611 122.65 153.076 122.107C153.541 121.564 153.773 120.805 153.773 119.828C153.773 118.824 153.547 118.049 153.094 117.502C152.645 116.955 152.023 116.682 151.23 116.682ZM33.1182 153H29.4854V145.998H30.3057V152.258H33.1182V153ZM36.6729 153.117C35.68 153.117 34.8841 152.79 34.2852 152.136C33.6895 151.481 33.3916 150.63 33.3916 149.582C33.3916 148.456 33.696 147.557 34.3047 146.887C34.9134 146.216 35.7419 145.881 36.79 145.881C37.7568 145.881 38.5348 146.206 39.124 146.857C39.7165 147.508 40.0127 148.36 40.0127 149.411C40.0127 150.554 39.71 151.457 39.1045 152.121C38.499 152.785 37.6885 153.117 36.6729 153.117ZM36.7314 146.623C35.9958 146.623 35.3984 146.888 34.9395 147.419C34.4805 147.95 34.251 148.646 34.251 149.509C34.251 150.371 34.474 151.066 34.9199 151.594C35.3691 152.118 35.9535 152.38 36.6729 152.38C37.4411 152.38 38.0465 152.129 38.4893 151.628C38.932 151.127 39.1533 150.425 39.1533 149.523C39.1533 148.599 38.9385 147.884 38.5088 147.38C38.0791 146.875 37.4867 146.623 36.7314 146.623ZM48.5283 153H47.7129V148.303C47.7129 147.932 47.7357 147.478 47.7812 146.94H47.7617C47.6836 147.256 47.6136 147.482 47.5518 147.619L45.1592 153H44.7588L42.3711 147.658C42.3027 147.502 42.2327 147.263 42.1611 146.94H42.1416C42.1676 147.22 42.1807 147.678 42.1807 148.312V153H41.3896V145.998H42.4736L44.6221 150.881C44.7881 151.255 44.8955 151.535 44.9443 151.721H44.9736C45.1136 151.337 45.2259 151.05 45.3105 150.861L47.5029 145.998H48.5283V153ZM55.7939 153H54.8857L54.1436 151.037H51.1748L50.4766 153H49.5635L52.249 145.998H53.0986L55.7939 153ZM53.875 150.3L52.7764 147.316C52.7406 147.219 52.7048 147.062 52.6689 146.848H52.6494C52.6169 147.046 52.5794 147.202 52.5371 147.316L51.4482 150.3H53.875ZM56.502 152.717V151.75C56.6126 151.848 56.7445 151.936 56.8975 152.014C57.0537 152.092 57.2165 152.159 57.3857 152.214C57.5583 152.266 57.7308 152.307 57.9033 152.336C58.0758 152.365 58.2354 152.38 58.3818 152.38C58.8864 152.38 59.2624 152.287 59.5098 152.102C59.7604 151.913 59.8857 151.643 59.8857 151.291C59.8857 151.102 59.8434 150.938 59.7588 150.798C59.6774 150.658 59.5635 150.531 59.417 150.417C59.2705 150.3 59.0964 150.189 58.8945 150.085C58.696 149.978 58.4811 149.865 58.25 149.748C58.0059 149.624 57.778 149.499 57.5664 149.372C57.3548 149.245 57.1709 149.105 57.0146 148.952C56.8584 148.799 56.7347 148.627 56.6436 148.435C56.5557 148.239 56.5117 148.011 56.5117 147.751C56.5117 147.432 56.5817 147.155 56.7217 146.921C56.8617 146.683 57.0456 146.488 57.2734 146.335C57.5013 146.182 57.7601 146.068 58.0498 145.993C58.3428 145.918 58.6406 145.881 58.9434 145.881C59.6335 145.881 60.1364 145.964 60.4521 146.13V147.053C60.0387 146.766 59.5081 146.623 58.8604 146.623C58.6813 146.623 58.5023 146.643 58.3232 146.682C58.1442 146.717 57.9847 146.778 57.8447 146.862C57.7048 146.947 57.5908 147.056 57.5029 147.189C57.415 147.323 57.3711 147.486 57.3711 147.678C57.3711 147.857 57.4036 148.011 57.4688 148.142C57.5371 148.272 57.6364 148.391 57.7666 148.498C57.8968 148.605 58.0547 148.71 58.2402 148.811C58.429 148.911 58.6455 149.022 58.8896 149.143C59.1403 149.266 59.3779 149.396 59.6025 149.533C59.8271 149.67 60.0241 149.821 60.1934 149.987C60.3626 150.153 60.4961 150.337 60.5938 150.539C60.6947 150.741 60.7451 150.972 60.7451 151.232C60.7451 151.577 60.6768 151.87 60.54 152.111C60.4066 152.349 60.2243 152.543 59.9932 152.692C59.7653 152.842 59.5016 152.95 59.2021 153.015C58.9027 153.083 58.5869 153.117 58.2549 153.117C58.1442 153.117 58.0075 153.107 57.8447 153.088C57.682 153.072 57.516 153.046 57.3467 153.01C57.1774 152.977 57.0163 152.937 56.8633 152.888C56.7135 152.836 56.5931 152.779 56.502 152.717ZM67.3369 150.529H64.6709V149.899H67.3369V150.529ZM71.6338 153V145.998H73.626C74.2314 145.998 74.7116 146.146 75.0664 146.442C75.4212 146.739 75.5986 147.124 75.5986 147.6C75.5986 147.997 75.4912 148.342 75.2764 148.635C75.0615 148.928 74.7653 149.136 74.3877 149.26V149.279C74.8597 149.335 75.2373 149.514 75.5205 149.816C75.8037 150.116 75.9453 150.507 75.9453 150.988C75.9453 151.587 75.7305 152.072 75.3008 152.443C74.8711 152.814 74.3291 153 73.6748 153H71.6338ZM72.4541 146.74V149.001H73.2939C73.7432 149.001 74.0964 148.894 74.3535 148.679C74.6107 148.461 74.7393 148.155 74.7393 147.761C74.7393 147.08 74.2917 146.74 73.3965 146.74H72.4541ZM72.4541 149.738V152.258H73.5674C74.0492 152.258 74.4219 152.144 74.6855 151.916C74.9525 151.688 75.0859 151.376 75.0859 150.979C75.0859 150.152 74.5228 149.738 73.3965 149.738H72.4541ZM82.7861 153H81.8779L81.1357 151.037H78.167L77.4688 153H76.5557L79.2412 145.998H80.0908L82.7861 153ZM80.8672 150.3L79.7686 147.316C79.7327 147.219 79.6969 147.062 79.6611 146.848H79.6416C79.609 147.046 79.5716 147.202 79.5293 147.316L78.4404 150.3H80.8672ZM89.4658 153H88.46L84.8564 147.419C84.7653 147.279 84.6904 147.132 84.6318 146.979H84.6025C84.6286 147.129 84.6416 147.45 84.6416 147.941V153H83.8213V145.998H84.8857L88.3916 151.491C88.5381 151.719 88.6325 151.875 88.6748 151.96H88.6943C88.6618 151.758 88.6455 151.415 88.6455 150.93V145.998H89.4658V153ZM94.8564 146.74H92.1221V149.162H94.6514V149.899H92.1221V153H91.3018V145.998H94.8564V146.74ZM97.0049 153H96.1846V145.998H97.0049V153ZM102.562 153H98.8506V145.998H102.405V146.74H99.6709V149.069H102.2V149.807H99.6709V152.258H102.562V153ZM107.542 153H103.909V145.998H104.729V152.258H107.542V153ZM108.616 153V145.998H110.55C113.017 145.998 114.251 147.136 114.251 149.411C114.251 150.492 113.908 151.361 113.221 152.019C112.537 152.673 111.621 153 110.472 153H108.616ZM109.437 146.74V152.258H110.481C111.399 152.258 112.114 152.012 112.625 151.521C113.136 151.029 113.392 150.332 113.392 149.431C113.392 147.637 112.438 146.74 110.53 146.74H109.437ZM120.823 150.529H118.157V149.899H120.823V150.529ZM129.261 146.74H127.239V153H126.419V146.74H124.402V145.998H129.261V146.74ZM134.075 153H130.364V145.998H133.919V146.74H131.185V149.069H133.714V149.807H131.185V152.258H134.075V153ZM142.562 153H141.746V148.303C141.746 147.932 141.769 147.478 141.814 146.94H141.795C141.717 147.256 141.647 147.482 141.585 147.619L139.192 153H138.792L136.404 147.658C136.336 147.502 136.266 147.263 136.194 146.94H136.175C136.201 147.22 136.214 147.678 136.214 148.312V153H135.423V145.998H136.507L138.655 150.881C138.821 151.255 138.929 151.535 138.978 151.721H139.007C139.147 151.337 139.259 151.05 139.344 150.861L141.536 145.998H142.562V153ZM145.228 150.354V153H144.407V145.998H146.331C147.08 145.998 147.659 146.18 148.069 146.545C148.483 146.91 148.689 147.424 148.689 148.088C148.689 148.752 148.46 149.296 148.001 149.719C147.545 150.142 146.928 150.354 146.15 150.354H145.228ZM145.228 146.74V149.611H146.087C146.653 149.611 147.085 149.483 147.381 149.226C147.68 148.965 147.83 148.599 147.83 148.127C147.83 147.202 147.283 146.74 146.189 146.74H145.228ZM153.724 153H150.013V145.998H153.567V146.74H150.833V149.069H153.362V149.807H150.833V152.258H153.724V153ZM160.091 153H159.114L157.942 151.037C157.835 150.855 157.731 150.7 157.63 150.573C157.529 150.443 157.425 150.337 157.317 150.256C157.213 150.174 157.099 150.116 156.976 150.08C156.855 150.041 156.718 150.021 156.565 150.021H155.892V153H155.071V145.998H157.161C157.467 145.998 157.749 146.037 158.006 146.115C158.266 146.19 158.491 146.306 158.68 146.462C158.872 146.618 159.021 146.813 159.129 147.048C159.236 147.279 159.29 147.551 159.29 147.863C159.29 148.107 159.253 148.332 159.178 148.537C159.106 148.739 159.002 148.92 158.865 149.079C158.732 149.239 158.569 149.375 158.377 149.489C158.188 149.6 157.975 149.686 157.737 149.748V149.768C157.854 149.82 157.955 149.88 158.04 149.948C158.128 150.013 158.211 150.091 158.289 150.183C158.367 150.274 158.444 150.378 158.519 150.495C158.597 150.609 158.683 150.743 158.777 150.896L160.091 153ZM155.892 146.74V149.279H157.005C157.21 149.279 157.399 149.248 157.571 149.187C157.747 149.125 157.898 149.037 158.025 148.923C158.152 148.806 158.252 148.664 158.323 148.498C158.395 148.329 158.431 148.14 158.431 147.932C158.431 147.557 158.309 147.266 158.064 147.058C157.824 146.846 157.474 146.74 157.015 146.74H155.892ZM164.69 153H161.058V145.998H161.878V152.258H164.69V153ZM169.476 153H165.765V145.998H169.319V146.74H166.585V149.069H169.114V149.807H166.585V152.258H169.476V153ZM175.374 145.998L173.064 150.412V153H172.244V150.432L169.993 145.998H170.926L172.493 149.162C172.513 149.201 172.57 149.344 172.664 149.592H172.679C172.711 149.481 172.773 149.338 172.864 149.162L174.505 145.998H175.374Z" fill="black"/>
</svg>
