<svg width="204" height="174" viewBox="0 0 204 174" fill="none" xmlns="http://www.w3.org/2000/svg">
<path d="M86.9479 60.9522L116.952 30.948" stroke="black" stroke-width="1.5" stroke-linecap="round" stroke-linejoin="round"/>
<path d="M89.4482 35.9487C90.8291 35.9487 91.9486 34.8293 91.9486 33.4483C91.9486 32.0674 90.8291 30.948 89.4482 30.948C88.0673 30.948 86.9479 32.0674 86.9479 33.4483C86.9479 34.8293 88.0673 35.9487 89.4482 35.9487Z" fill="black" stroke="black" stroke-width="1.5" stroke-linecap="round" stroke-linejoin="round"/>
<path d="M114.452 60.9522C115.833 60.9522 116.952 59.8328 116.952 58.4519C116.952 57.071 115.833 55.9515 114.452 55.9515C113.071 55.9515 111.951 57.071 111.951 58.4519C111.951 59.8328 113.071 60.9522 114.452 60.9522Z" fill="black" stroke="black" stroke-width="1.5" stroke-linecap="round" stroke-linejoin="round"/>
<path d="M66.9451 21.9466C66.9451 19.0288 68.1042 16.2306 70.1674 14.1674C72.2306 12.1042 75.0288 10.9451 77.9466 10.9451H82.9473C85.8522 10.9434 88.6386 9.79295 90.6984 7.74465L94.1989 4.24417C95.2213 3.21602 96.4368 2.40012 97.7756 1.84337C99.1144 1.28661 100.55 1 102 1C103.45 1 104.886 1.28661 106.224 1.84337C107.563 2.40012 108.779 3.21602 109.801 4.24417L113.302 7.74465C115.361 9.79295 118.148 10.9434 121.053 10.9451H126.053C128.971 10.9451 131.769 12.1042 133.833 14.1674C135.896 16.2306 137.055 19.0288 137.055 21.9466V26.9473C137.057 29.8522 138.207 32.6386 140.255 34.6984L143.756 38.1989C144.784 39.2213 145.6 40.4368 146.157 41.7756C146.713 43.1144 147 44.5501 147 46C147 47.4499 146.713 48.8856 146.157 50.2244C145.6 51.5632 144.784 52.7787 143.756 53.8011L140.255 57.3016C138.207 59.3614 137.057 62.1478 137.055 65.0527V70.0534C137.055 72.9711 135.896 75.7694 133.833 77.8326C131.769 79.8958 128.971 81.0549 126.053 81.0549H121.053C118.148 81.0566 115.361 82.207 113.302 84.2553L109.801 87.7558C108.779 88.784 107.563 89.5999 106.224 90.1566C104.886 90.7134 103.45 91 102 91C100.55 91 99.1144 90.7134 97.7756 90.1566C96.4368 89.5999 95.2213 88.784 94.1989 87.7558L90.6984 84.2553C88.6386 82.207 85.8522 81.0566 82.9473 81.0549H77.9466C75.0288 81.0549 72.2306 79.8958 70.1674 77.8326C68.1042 75.7694 66.9451 72.9711 66.9451 70.0534V65.0527C66.9434 62.1478 65.7929 59.3614 63.7447 57.3016L60.2442 53.8011C59.216 52.7787 58.4001 51.5632 57.8434 50.2244C57.2866 48.8856 57 47.4499 57 46C57 44.5501 57.2866 43.1144 57.8434 41.7756C58.4001 40.4368 59.216 39.2213 60.2442 38.1989L63.7447 34.6984C65.7929 32.6386 66.9434 29.8522 66.9451 26.9473V21.9466" stroke="black" stroke-width="1.5" stroke-linecap="round" stroke-linejoin="round"/>
<path d="M30.832 115.41V124H29.4727V117.074C29.2266 117.25 28.9609 117.4 28.6758 117.525C28.3945 117.646 28.0723 117.754 27.709 117.848V116.688C27.9355 116.613 28.1543 116.535 28.3652 116.453C28.5762 116.371 28.7832 116.279 28.9863 116.178C29.1934 116.076 29.4004 115.963 29.6074 115.838C29.8184 115.713 30.0352 115.57 30.2578 115.41H30.832ZM35.2969 124.141C34.4219 124.141 33.7383 123.783 33.2461 123.068C32.7578 122.354 32.5137 121.32 32.5137 119.969C32.5137 118.484 32.7695 117.361 33.2812 116.6C33.793 115.838 34.5312 115.457 35.4961 115.457C37.3438 115.457 38.2676 116.893 38.2676 119.764C38.2676 121.186 38.0059 122.271 37.4824 123.021C36.9629 123.768 36.2344 124.141 35.2969 124.141ZM35.4316 116.541C34.4121 116.541 33.9023 117.664 33.9023 119.91C33.9023 122.012 34.4023 123.062 35.4023 123.062C36.3867 123.062 36.8789 121.994 36.8789 119.857C36.8789 117.646 36.3965 116.541 35.4316 116.541ZM41.1621 119.816C40.5684 119.816 40.0957 119.627 39.7441 119.248C39.3926 118.865 39.2168 118.355 39.2168 117.719C39.2168 117.023 39.4023 116.477 39.7734 116.078C40.1484 115.676 40.6523 115.475 41.2852 115.475C41.8984 115.475 42.373 115.66 42.709 116.031C43.0488 116.402 43.2188 116.924 43.2188 117.596C43.2188 118.268 43.0293 118.807 42.6504 119.213C42.2715 119.615 41.7754 119.816 41.1621 119.816ZM41.2441 116.295C40.9238 116.295 40.6699 116.418 40.4824 116.664C40.2988 116.91 40.207 117.248 40.207 117.678C40.207 118.1 40.2969 118.428 40.4766 118.662C40.6602 118.896 40.9102 119.014 41.2266 119.014C41.543 119.014 41.791 118.893 41.9707 118.65C42.1504 118.404 42.2402 118.064 42.2402 117.631C42.2402 117.209 42.1504 116.881 41.9707 116.646C41.7949 116.412 41.5527 116.295 41.2441 116.295ZM46.8516 115.598L41.4609 124.059H40.623L46.0078 115.598H46.8516ZM46.0957 124.129C45.502 124.129 45.0293 123.939 44.6777 123.561C44.3262 123.178 44.1504 122.668 44.1504 122.031C44.1504 121.336 44.3359 120.789 44.707 120.391C45.082 119.988 45.5859 119.787 46.2188 119.787C46.832 119.787 47.3066 119.973 47.6426 120.344C47.9824 120.715 48.1523 121.236 48.1523 121.908C48.1523 122.58 47.9629 123.119 47.584 123.525C47.2051 123.928 46.709 124.129 46.0957 124.129ZM46.1777 120.607C45.8574 120.607 45.6035 120.73 45.416 120.977C45.2324 121.223 45.1406 121.561 45.1406 121.99C45.1406 122.412 45.2305 122.74 45.4102 122.975C45.5938 123.209 45.8438 123.326 46.1602 123.326C46.4766 123.326 46.7246 123.205 46.9043 122.963C47.084 122.717 47.1738 122.377 47.1738 121.943C47.1738 121.521 47.084 121.193 46.9043 120.959C46.7285 120.725 46.4863 120.607 46.1777 120.607ZM56.6191 124.141C55.4082 124.141 54.4375 123.748 53.707 122.963C52.9805 122.178 52.6172 121.156 52.6172 119.898C52.6172 118.547 52.9883 117.469 53.7305 116.664C54.4727 115.859 55.4805 115.457 56.7539 115.457C57.9336 115.457 58.8828 115.848 59.6016 116.629C60.3242 117.41 60.6855 118.432 60.6855 119.693C60.6855 121.064 60.3164 122.148 59.5781 122.945C58.8398 123.742 57.8535 124.141 56.6191 124.141ZM56.6836 116.682C55.9141 116.682 55.2871 116.969 54.8027 117.543C54.3223 118.117 54.082 118.873 54.082 119.811C54.082 120.744 54.3164 121.496 54.7852 122.066C55.2539 122.637 55.8672 122.922 56.625 122.922C57.4297 122.922 58.0645 122.65 58.5293 122.107C58.9941 121.564 59.2266 120.805 59.2266 119.828C59.2266 118.824 59 118.049 58.5469 117.502C58.0977 116.955 57.4766 116.682 56.6836 116.682ZM66.7617 116.781H63.6211V119.307H66.5156V120.484H63.6211V124H62.2266V115.598H66.7617V116.781ZM72.7969 116.781H69.6562V119.307H72.5508V120.484H69.6562V124H68.2617V115.598H72.7969V116.781ZM80.6074 121.223H77.4082V120.221H80.6074V121.223ZM91.125 116.781H88.7109V124H87.3164V116.781H84.9082V115.598H91.125V116.781ZM98.8477 124H97.2188L95.877 121.75C95.7559 121.543 95.6367 121.367 95.5195 121.223C95.4062 121.074 95.2891 120.953 95.168 120.859C95.0508 120.766 94.9219 120.697 94.7812 120.654C94.6406 120.611 94.4824 120.59 94.3066 120.59H93.7441V124H92.3555V115.598H95.1211C95.5156 115.598 95.8789 115.645 96.2109 115.738C96.543 115.832 96.832 115.975 97.0781 116.166C97.3242 116.354 97.5156 116.59 97.6523 116.875C97.793 117.156 97.8633 117.486 97.8633 117.865C97.8633 118.162 97.8184 118.436 97.7285 118.686C97.6426 118.932 97.5176 119.152 97.3535 119.348C97.1934 119.539 96.998 119.703 96.7676 119.84C96.541 119.977 96.2852 120.082 96 120.156V120.18C96.1523 120.266 96.2852 120.361 96.3984 120.467C96.5117 120.568 96.6191 120.674 96.7207 120.783C96.8223 120.893 96.9219 121.018 97.0195 121.158C97.1211 121.295 97.2324 121.455 97.3535 121.639L98.8477 124ZM93.7441 116.729V119.459H94.9043C95.1191 119.459 95.3164 119.426 95.4961 119.359C95.6797 119.293 95.8379 119.197 95.9707 119.072C96.1035 118.947 96.207 118.795 96.2812 118.615C96.3555 118.436 96.3926 118.234 96.3926 118.012C96.3926 117.609 96.2656 117.295 96.0117 117.068C95.7578 116.842 95.3926 116.729 94.916 116.729H93.7441ZM106.734 124H105.205L104.449 121.861H101.145L100.418 124H98.8945L102.041 115.598H103.611L106.734 124ZM104.08 120.725L102.914 117.373C102.879 117.264 102.842 117.088 102.803 116.846H102.779C102.744 117.068 102.705 117.244 102.662 117.373L101.508 120.725H104.08ZM115.02 124H113.496L109.482 117.824C109.381 117.668 109.297 117.506 109.23 117.338H109.195C109.227 117.518 109.242 117.902 109.242 118.492V124H107.895V115.598H109.518L113.396 121.627C113.561 121.877 113.666 122.049 113.713 122.143H113.736C113.697 121.92 113.678 121.543 113.678 121.012V115.598H115.02V124ZM116.719 123.666V122.23C116.848 122.348 117 122.453 117.176 122.547C117.355 122.641 117.545 122.721 117.744 122.787C117.943 122.85 118.143 122.898 118.342 122.934C118.541 122.969 118.725 122.986 118.893 122.986C119.479 122.986 119.914 122.889 120.199 122.693C120.488 122.498 120.633 122.215 120.633 121.844C120.633 121.645 120.584 121.473 120.486 121.328C120.393 121.18 120.26 121.045 120.088 120.924C119.916 120.803 119.713 120.688 119.479 120.578C119.248 120.465 119 120.348 118.734 120.227C118.449 120.074 118.184 119.92 117.938 119.764C117.691 119.607 117.477 119.436 117.293 119.248C117.113 119.057 116.971 118.842 116.865 118.604C116.764 118.365 116.713 118.086 116.713 117.766C116.713 117.371 116.801 117.029 116.977 116.74C117.156 116.447 117.391 116.207 117.68 116.02C117.973 115.828 118.305 115.688 118.676 115.598C119.047 115.504 119.426 115.457 119.812 115.457C120.691 115.457 121.332 115.557 121.734 115.756V117.133C121.258 116.789 120.645 116.617 119.895 116.617C119.688 116.617 119.48 116.637 119.273 116.676C119.07 116.715 118.887 116.779 118.723 116.869C118.562 116.959 118.432 117.074 118.33 117.215C118.229 117.355 118.178 117.525 118.178 117.725C118.178 117.912 118.217 118.074 118.295 118.211C118.373 118.348 118.486 118.473 118.635 118.586C118.787 118.699 118.971 118.811 119.186 118.92C119.404 119.025 119.656 119.141 119.941 119.266C120.234 119.418 120.51 119.578 120.768 119.746C121.029 119.914 121.258 120.1 121.453 120.303C121.652 120.506 121.809 120.732 121.922 120.982C122.039 121.229 122.098 121.51 122.098 121.826C122.098 122.252 122.012 122.611 121.84 122.904C121.668 123.197 121.436 123.436 121.143 123.619C120.854 123.803 120.52 123.936 120.141 124.018C119.762 124.1 119.361 124.141 118.939 124.141C118.799 124.141 118.625 124.129 118.418 124.105C118.215 124.086 118.006 124.055 117.791 124.012C117.576 123.973 117.373 123.924 117.182 123.865C116.99 123.807 116.836 123.74 116.719 123.666ZM128.18 116.781H125.039V119.307H127.934V120.484H125.039V124H123.645V115.598H128.18V116.781ZM134.396 124H129.68V115.598H134.209V116.781H131.074V119.16H133.963V120.338H131.074V122.822H134.396V124ZM142.383 124H140.754L139.412 121.75C139.291 121.543 139.172 121.367 139.055 121.223C138.941 121.074 138.824 120.953 138.703 120.859C138.586 120.766 138.457 120.697 138.316 120.654C138.176 120.611 138.018 120.59 137.842 120.59H137.279V124H135.891V115.598H138.656C139.051 115.598 139.414 115.645 139.746 115.738C140.078 115.832 140.367 115.975 140.613 116.166C140.859 116.354 141.051 116.59 141.188 116.875C141.328 117.156 141.398 117.486 141.398 117.865C141.398 118.162 141.354 118.436 141.264 118.686C141.178 118.932 141.053 119.152 140.889 119.348C140.729 119.539 140.533 119.703 140.303 119.84C140.076 119.977 139.82 120.082 139.535 120.156V120.18C139.688 120.266 139.82 120.361 139.934 120.467C140.047 120.568 140.154 120.674 140.256 120.783C140.357 120.893 140.457 121.018 140.555 121.158C140.656 121.295 140.768 121.455 140.889 121.639L142.383 124ZM137.279 116.729V119.459H138.439C138.654 119.459 138.852 119.426 139.031 119.359C139.215 119.293 139.373 119.197 139.506 119.072C139.639 118.947 139.742 118.795 139.816 118.615C139.891 118.436 139.928 118.234 139.928 118.012C139.928 117.609 139.801 117.295 139.547 117.068C139.293 116.842 138.928 116.729 138.451 116.729H137.279ZM148.084 124H143.367V115.598H147.896V116.781H144.762V119.16H147.65V120.338H144.762V122.822H148.084V124ZM156.703 124H155.18L151.166 117.824C151.064 117.668 150.98 117.506 150.914 117.338H150.879C150.91 117.518 150.926 117.902 150.926 118.492V124H149.578V115.598H151.201L155.08 121.627C155.244 121.877 155.35 122.049 155.396 122.143H155.42C155.381 121.92 155.361 121.543 155.361 121.012V115.598H156.703V124ZM164.648 123.648C164.016 123.977 163.229 124.141 162.287 124.141C161.068 124.141 160.092 123.756 159.357 122.986C158.623 122.217 158.256 121.207 158.256 119.957C158.256 118.613 158.668 117.527 159.492 116.699C160.32 115.871 161.365 115.457 162.627 115.457C163.439 115.457 164.113 115.572 164.648 115.803V117.186C164.082 116.85 163.457 116.682 162.773 116.682C161.863 116.682 161.125 116.973 160.559 117.555C159.996 118.137 159.715 118.914 159.715 119.887C159.715 120.812 159.979 121.551 160.506 122.102C161.033 122.648 161.727 122.922 162.586 122.922C163.379 122.922 164.066 122.734 164.648 122.359V123.648ZM167.672 124H166.236V115.598H167.672V124ZM176.648 124H175.119L174.363 121.861H171.059L170.332 124H168.809L171.955 115.598H173.525L176.648 124ZM173.994 120.725L172.828 117.373C172.793 117.264 172.756 117.088 172.717 116.846H172.693C172.658 117.068 172.619 117.244 172.576 117.373L171.422 120.725H173.994ZM39.2754 140V131.598H41.9414C42.7539 131.598 43.3965 131.775 43.8691 132.131C44.3457 132.486 44.584 132.949 44.584 133.52C44.584 133.996 44.4492 134.41 44.1797 134.762C43.9102 135.113 43.5371 135.363 43.0605 135.512V135.535C43.6387 135.602 44.0996 135.816 44.4434 136.18C44.791 136.539 44.9648 137.008 44.9648 137.586C44.9648 138.305 44.6816 138.887 44.1152 139.332C43.5488 139.777 42.834 140 41.9707 140H39.2754ZM40.6641 132.717V135.107H41.5664C42.0508 135.107 42.4297 134.994 42.7031 134.768C42.9805 134.537 43.1191 134.213 43.1191 133.795C43.1191 133.076 42.6387 132.717 41.6777 132.717H40.6641ZM40.6641 136.227V138.887H41.8535C42.373 138.887 42.7734 138.768 43.0547 138.529C43.3398 138.287 43.4824 137.955 43.4824 137.533C43.4824 136.662 42.8789 136.227 41.6719 136.227H40.6641ZM53.4316 140H51.9023L51.1465 137.861H47.8418L47.1152 140H45.5918L48.7383 131.598H50.3086L53.4316 140ZM50.7773 136.725L49.6113 133.373C49.5762 133.264 49.5391 133.088 49.5 132.846H49.4766C49.4414 133.068 49.4023 133.244 49.3594 133.373L48.2051 136.725H50.7773ZM61.7168 140H60.1934L56.1797 133.824C56.0781 133.668 55.9941 133.506 55.9277 133.338H55.8926C55.9238 133.518 55.9395 133.902 55.9395 134.492V140H54.5918V131.598H56.2148L60.0938 137.627C60.2578 137.877 60.3633 138.049 60.4102 138.143H60.4336C60.3945 137.92 60.375 137.543 60.375 137.012V131.598H61.7168V140ZM69.6621 139.648C69.0293 139.977 68.2422 140.141 67.3008 140.141C66.082 140.141 65.1055 139.756 64.3711 138.986C63.6367 138.217 63.2695 137.207 63.2695 135.957C63.2695 134.613 63.6816 133.527 64.5059 132.699C65.334 131.871 66.3789 131.457 67.6406 131.457C68.4531 131.457 69.127 131.572 69.6621 131.803V133.186C69.0957 132.85 68.4707 132.682 67.7871 132.682C66.877 132.682 66.1387 132.973 65.5723 133.555C65.0098 134.137 64.7285 134.914 64.7285 135.887C64.7285 136.812 64.9922 137.551 65.5195 138.102C66.0469 138.648 66.7402 138.922 67.5996 138.922C68.3926 138.922 69.0801 138.734 69.6621 138.359V139.648ZM78.1582 140H76.6289L75.873 137.861H72.5684L71.8418 140H70.3184L73.4648 131.598H75.0352L78.1582 140ZM75.5039 136.725L74.3379 133.373C74.3027 133.264 74.2656 133.088 74.2266 132.846H74.2031C74.168 133.068 74.1289 133.244 74.0859 133.373L72.9316 136.725H75.5039ZM85.8105 140H84.1816L82.8398 137.75C82.7188 137.543 82.5996 137.367 82.4824 137.223C82.3691 137.074 82.252 136.953 82.1309 136.859C82.0137 136.766 81.8848 136.697 81.7441 136.654C81.6035 136.611 81.4453 136.59 81.2695 136.59H80.707V140H79.3184V131.598H82.084C82.4785 131.598 82.8418 131.645 83.1738 131.738C83.5059 131.832 83.7949 131.975 84.041 132.166C84.2871 132.354 84.4785 132.59 84.6152 132.875C84.7559 133.156 84.8262 133.486 84.8262 133.865C84.8262 134.162 84.7812 134.436 84.6914 134.686C84.6055 134.932 84.4805 135.152 84.3164 135.348C84.1562 135.539 83.9609 135.703 83.7305 135.84C83.5039 135.977 83.248 136.082 82.9629 136.156V136.18C83.1152 136.266 83.248 136.361 83.3613 136.467C83.4746 136.568 83.582 136.674 83.6836 136.783C83.7852 136.893 83.8848 137.018 83.9824 137.158C84.084 137.295 84.1953 137.455 84.3164 137.639L85.8105 140ZM80.707 132.729V135.459H81.8672C82.082 135.459 82.2793 135.426 82.459 135.359C82.6426 135.293 82.8008 135.197 82.9336 135.072C83.0664 134.947 83.1699 134.795 83.2441 134.615C83.3184 134.436 83.3555 134.234 83.3555 134.012C83.3555 133.609 83.2285 133.295 82.9746 133.068C82.7207 132.842 82.3555 132.729 81.8789 132.729H80.707ZM88.2246 140H86.7891V131.598H88.2246V140ZM97.2012 140H95.6719L94.916 137.861H91.6113L90.8848 140H89.3613L92.5078 131.598H94.0781L97.2012 140ZM94.5469 136.725L93.3809 133.373C93.3457 133.264 93.3086 133.088 93.2695 132.846H93.2461C93.2109 133.068 93.1719 133.244 93.1289 133.373L91.9746 136.725H94.5469ZM105.129 140.141C103.918 140.141 102.947 139.748 102.217 138.963C101.49 138.178 101.127 137.156 101.127 135.898C101.127 134.547 101.498 133.469 102.24 132.664C102.982 131.859 103.99 131.457 105.264 131.457C106.443 131.457 107.393 131.848 108.111 132.629C108.834 133.41 109.195 134.432 109.195 135.693C109.195 137.064 108.826 138.148 108.088 138.945C107.35 139.742 106.363 140.141 105.129 140.141ZM105.193 132.682C104.424 132.682 103.797 132.969 103.312 133.543C102.832 134.117 102.592 134.873 102.592 135.811C102.592 136.744 102.826 137.496 103.295 138.066C103.764 138.637 104.377 138.922 105.135 138.922C105.939 138.922 106.574 138.65 107.039 138.107C107.504 137.564 107.736 136.805 107.736 135.828C107.736 134.824 107.51 134.049 107.057 133.502C106.607 132.955 105.986 132.682 105.193 132.682ZM118.758 140H114.041V131.598H118.57V132.781H115.436V135.16H118.324V136.338H115.436V138.822H118.758V140ZM124.787 132.781H121.646V135.307H124.541V136.484H121.646V140H120.252V131.598H124.787V132.781ZM131.004 140H126.287V131.598H130.816V132.781H127.682V135.16H130.57V136.338H127.682V138.822H131.004V140ZM138.357 139.648C137.725 139.977 136.938 140.141 135.996 140.141C134.777 140.141 133.801 139.756 133.066 138.986C132.332 138.217 131.965 137.207 131.965 135.957C131.965 134.613 132.377 133.527 133.201 132.699C134.029 131.871 135.074 131.457 136.336 131.457C137.148 131.457 137.822 131.572 138.357 131.803V133.186C137.791 132.85 137.166 132.682 136.482 132.682C135.572 132.682 134.834 132.973 134.268 133.555C133.705 134.137 133.424 134.914 133.424 135.887C133.424 136.812 133.688 137.551 134.215 138.102C134.742 138.648 135.436 138.922 136.295 138.922C137.088 138.922 137.775 138.734 138.357 138.359V139.648ZM145.342 132.781H142.928V140H141.533V132.781H139.125V131.598H145.342V132.781ZM148.002 140H146.566V131.598H148.002V140ZM156.662 131.598L153.645 140H152.086L149.121 131.598H150.645L152.719 137.973C152.785 138.176 152.836 138.412 152.871 138.682H152.895C152.922 138.459 152.979 138.219 153.064 137.961L155.186 131.598H156.662ZM161.191 140.141C159.98 140.141 159.01 139.748 158.279 138.963C157.553 138.178 157.189 137.156 157.189 135.898C157.189 134.547 157.561 133.469 158.303 132.664C159.045 131.859 160.053 131.457 161.326 131.457C162.506 131.457 163.455 131.848 164.174 132.629C164.896 133.41 165.258 134.432 165.258 135.693C165.258 137.064 164.889 138.148 164.15 138.945C163.412 139.742 162.426 140.141 161.191 140.141ZM161.256 132.682C160.486 132.682 159.859 132.969 159.375 133.543C158.895 134.117 158.654 134.873 158.654 135.811C158.654 136.744 158.889 137.496 159.357 138.066C159.826 138.637 160.439 138.922 161.197 138.922C162.002 138.922 162.637 138.65 163.102 138.107C163.566 137.564 163.799 136.805 163.799 135.828C163.799 134.824 163.572 134.049 163.119 133.502C162.67 132.955 162.049 132.682 161.256 132.682ZM20.9355 166.354V169H20.1152V161.998H22.0391C22.7878 161.998 23.3672 162.18 23.7773 162.545C24.1908 162.91 24.3975 163.424 24.3975 164.088C24.3975 164.752 24.168 165.296 23.709 165.719C23.2533 166.142 22.6364 166.354 21.8584 166.354H20.9355ZM20.9355 162.74V165.611H21.7949C22.3613 165.611 22.7926 165.483 23.0889 165.226C23.3883 164.965 23.5381 164.599 23.5381 164.127C23.5381 163.202 22.9912 162.74 21.8975 162.74H20.9355ZM30.457 169H29.5488L28.8066 167.037H25.8379L25.1396 169H24.2266L26.9121 161.998H27.7617L30.457 169ZM28.5381 166.3L27.4395 163.316C27.4036 163.219 27.3678 163.062 27.332 162.848H27.3125C27.2799 163.046 27.2425 163.202 27.2002 163.316L26.1113 166.3H28.5381ZM36.5117 169H35.5352L34.3633 167.037C34.2559 166.855 34.1517 166.7 34.0508 166.573C33.9499 166.443 33.8457 166.337 33.7383 166.256C33.6341 166.174 33.5202 166.116 33.3965 166.08C33.276 166.041 33.1393 166.021 32.9863 166.021H32.3125V169H31.4922V161.998H33.582C33.888 161.998 34.1696 162.037 34.4268 162.115C34.6872 162.19 34.9118 162.306 35.1006 162.462C35.2926 162.618 35.4424 162.813 35.5498 163.048C35.6572 163.279 35.7109 163.551 35.7109 163.863C35.7109 164.107 35.6735 164.332 35.5986 164.537C35.527 164.739 35.4229 164.92 35.2861 165.079C35.1527 165.239 34.9899 165.375 34.7979 165.489C34.609 165.6 34.3958 165.686 34.1582 165.748V165.768C34.2754 165.82 34.3763 165.88 34.4609 165.948C34.5488 166.013 34.6318 166.091 34.71 166.183C34.7881 166.274 34.8646 166.378 34.9395 166.495C35.0176 166.609 35.1038 166.743 35.1982 166.896L36.5117 169ZM32.3125 162.74V165.279H33.4258C33.6309 165.279 33.8197 165.248 33.9922 165.187C34.168 165.125 34.3193 165.037 34.4463 164.923C34.5732 164.806 34.6725 164.664 34.7441 164.498C34.8158 164.329 34.8516 164.14 34.8516 163.932C34.8516 163.557 34.7295 163.266 34.4854 163.058C34.2445 162.846 33.8945 162.74 33.4355 162.74H32.3125ZM42.8984 169H41.9902L41.248 167.037H38.2793L37.5811 169H36.668L39.3535 161.998H40.2031L42.8984 169ZM40.9795 166.3L39.8809 163.316C39.8451 163.219 39.8092 163.062 39.7734 162.848H39.7539C39.7214 163.046 39.6839 163.202 39.6416 163.316L38.5527 166.3H40.9795ZM47.498 166.354V169H46.6777V161.998H48.6016C49.3503 161.998 49.9297 162.18 50.3398 162.545C50.7533 162.91 50.96 163.424 50.96 164.088C50.96 164.752 50.7305 165.296 50.2715 165.719C49.8158 166.142 49.1989 166.354 48.4209 166.354H47.498ZM47.498 162.74V165.611H48.3574C48.9238 165.611 49.3551 165.483 49.6514 165.226C49.9508 164.965 50.1006 164.599 50.1006 164.127C50.1006 163.202 49.5537 162.74 48.46 162.74H47.498ZM57.3027 169H56.3262L55.1543 167.037C55.0469 166.855 54.9427 166.7 54.8418 166.573C54.7409 166.443 54.6367 166.337 54.5293 166.256C54.4251 166.174 54.3112 166.116 54.1875 166.08C54.0671 166.041 53.9303 166.021 53.7773 166.021H53.1035V169H52.2832V161.998H54.373C54.679 161.998 54.9606 162.037 55.2178 162.115C55.4782 162.19 55.7028 162.306 55.8916 162.462C56.0837 162.618 56.2334 162.813 56.3408 163.048C56.4482 163.279 56.502 163.551 56.502 163.863C56.502 164.107 56.4645 164.332 56.3896 164.537C56.318 164.739 56.2139 164.92 56.0771 165.079C55.9437 165.239 55.7809 165.375 55.5889 165.489C55.4001 165.6 55.1868 165.686 54.9492 165.748V165.768C55.0664 165.82 55.1673 165.88 55.252 165.948C55.3398 166.013 55.4229 166.091 55.501 166.183C55.5791 166.274 55.6556 166.378 55.7305 166.495C55.8086 166.609 55.8949 166.743 55.9893 166.896L57.3027 169ZM53.1035 162.74V165.279H54.2168C54.4219 165.279 54.6107 165.248 54.7832 165.187C54.959 165.125 55.1104 165.037 55.2373 164.923C55.3643 164.806 55.4635 164.664 55.5352 164.498C55.6068 164.329 55.6426 164.14 55.6426 163.932C55.6426 163.557 55.5205 163.266 55.2764 163.058C55.0355 162.846 54.6855 162.74 54.2266 162.74H53.1035ZM60.9941 169.117C60.0013 169.117 59.2054 168.79 58.6064 168.136C58.0107 167.481 57.7129 166.63 57.7129 165.582C57.7129 164.456 58.0173 163.557 58.626 162.887C59.2347 162.216 60.0632 161.881 61.1113 161.881C62.0781 161.881 62.8561 162.206 63.4453 162.857C64.0378 163.508 64.334 164.36 64.334 165.411C64.334 166.554 64.0312 167.457 63.4258 168.121C62.8203 168.785 62.0098 169.117 60.9941 169.117ZM61.0527 162.623C60.3171 162.623 59.7197 162.888 59.2607 163.419C58.8018 163.95 58.5723 164.646 58.5723 165.509C58.5723 166.371 58.7952 167.066 59.2412 167.594C59.6904 168.118 60.2747 168.38 60.9941 168.38C61.7624 168.38 62.3678 168.129 62.8105 167.628C63.2533 167.127 63.4746 166.425 63.4746 165.523C63.4746 164.599 63.2598 163.884 62.8301 163.38C62.4004 162.875 61.8079 162.623 61.0527 162.623ZM65.7109 169V161.998H67.6445C70.112 161.998 71.3457 163.136 71.3457 165.411C71.3457 166.492 71.0023 167.361 70.3154 168.019C69.6318 168.673 68.7155 169 67.5664 169H65.7109ZM66.5312 162.74V168.258H67.5762C68.4941 168.258 69.2087 168.012 69.7197 167.521C70.2308 167.029 70.4863 166.332 70.4863 165.431C70.4863 163.637 69.5326 162.74 67.625 162.74H66.5312ZM77.8447 166.168C77.8447 168.134 76.9577 169.117 75.1836 169.117C73.4844 169.117 72.6348 168.172 72.6348 166.28V161.998H73.4551V166.227C73.4551 167.662 74.0605 168.38 75.2715 168.38C76.4401 168.38 77.0244 167.687 77.0244 166.3V161.998H77.8447V166.168ZM84.3633 168.707C83.8457 168.98 83.2012 169.117 82.4297 169.117C81.4336 169.117 80.6361 168.797 80.0371 168.155C79.4382 167.514 79.1387 166.673 79.1387 165.631C79.1387 164.511 79.4756 163.606 80.1494 162.916C80.8232 162.226 81.6777 161.881 82.7129 161.881C83.377 161.881 83.9271 161.977 84.3633 162.169V163.043C83.862 162.763 83.3086 162.623 82.7031 162.623C81.8991 162.623 81.2464 162.892 80.7451 163.429C80.2471 163.966 79.998 164.684 79.998 165.582C79.998 166.435 80.2308 167.115 80.6963 167.623C81.165 168.128 81.7786 168.38 82.5371 168.38C83.2402 168.38 83.849 168.224 84.3633 167.911V168.707ZM89.9297 162.74H87.9082V169H87.0879V162.74H85.0713V161.998H89.9297V162.74ZM93.3867 169.117C92.3939 169.117 91.598 168.79 90.999 168.136C90.4033 167.481 90.1055 166.63 90.1055 165.582C90.1055 164.456 90.4098 163.557 91.0186 162.887C91.6273 162.216 92.4557 161.881 93.5039 161.881C94.4707 161.881 95.2487 162.206 95.8379 162.857C96.4303 163.508 96.7266 164.36 96.7266 165.411C96.7266 166.554 96.4238 167.457 95.8184 168.121C95.2129 168.785 94.4023 169.117 93.3867 169.117ZM93.4453 162.623C92.7096 162.623 92.1123 162.888 91.6533 163.419C91.1943 163.95 90.9648 164.646 90.9648 165.509C90.9648 166.371 91.1878 167.066 91.6338 167.594C92.083 168.118 92.6673 168.38 93.3867 168.38C94.1549 168.38 94.7604 168.129 95.2031 167.628C95.6458 167.127 95.8672 166.425 95.8672 165.523C95.8672 164.599 95.6523 163.884 95.2227 163.38C94.793 162.875 94.2005 162.623 93.4453 162.623ZM97.7764 168.717V167.75C97.887 167.848 98.0189 167.936 98.1719 168.014C98.3281 168.092 98.4909 168.159 98.6602 168.214C98.8327 168.266 99.0052 168.307 99.1777 168.336C99.3503 168.365 99.5098 168.38 99.6562 168.38C100.161 168.38 100.537 168.287 100.784 168.102C101.035 167.913 101.16 167.643 101.16 167.291C101.16 167.102 101.118 166.938 101.033 166.798C100.952 166.658 100.838 166.531 100.691 166.417C100.545 166.3 100.371 166.189 100.169 166.085C99.9704 165.978 99.7555 165.865 99.5244 165.748C99.2803 165.624 99.0524 165.499 98.8408 165.372C98.6292 165.245 98.4453 165.105 98.2891 164.952C98.1328 164.799 98.0091 164.627 97.918 164.435C97.8301 164.239 97.7861 164.011 97.7861 163.751C97.7861 163.432 97.8561 163.155 97.9961 162.921C98.1361 162.683 98.32 162.488 98.5479 162.335C98.7757 162.182 99.0345 162.068 99.3242 161.993C99.6172 161.918 99.915 161.881 100.218 161.881C100.908 161.881 101.411 161.964 101.727 162.13V163.053C101.313 162.766 100.783 162.623 100.135 162.623C99.9557 162.623 99.7767 162.643 99.5977 162.682C99.4186 162.717 99.2591 162.778 99.1191 162.862C98.9792 162.947 98.8652 163.056 98.7773 163.189C98.6895 163.323 98.6455 163.486 98.6455 163.678C98.6455 163.857 98.6781 164.011 98.7432 164.142C98.8115 164.272 98.9108 164.391 99.041 164.498C99.1712 164.605 99.3291 164.71 99.5146 164.811C99.7035 164.911 99.9199 165.022 100.164 165.143C100.415 165.266 100.652 165.396 100.877 165.533C101.102 165.67 101.299 165.821 101.468 165.987C101.637 166.153 101.771 166.337 101.868 166.539C101.969 166.741 102.02 166.972 102.02 167.232C102.02 167.577 101.951 167.87 101.814 168.111C101.681 168.349 101.499 168.543 101.268 168.692C101.04 168.842 100.776 168.95 100.477 169.015C100.177 169.083 99.8613 169.117 99.5293 169.117C99.4186 169.117 99.2819 169.107 99.1191 169.088C98.9564 169.072 98.7904 169.046 98.6211 169.01C98.4518 168.977 98.2907 168.937 98.1377 168.888C97.988 168.836 97.8675 168.779 97.7764 168.717ZM105.833 168.717V167.75C105.944 167.848 106.076 167.936 106.229 168.014C106.385 168.092 106.548 168.159 106.717 168.214C106.889 168.266 107.062 168.307 107.234 168.336C107.407 168.365 107.566 168.38 107.713 168.38C108.217 168.38 108.593 168.287 108.841 168.102C109.091 167.913 109.217 167.643 109.217 167.291C109.217 167.102 109.174 166.938 109.09 166.798C109.008 166.658 108.895 166.531 108.748 166.417C108.602 166.3 108.427 166.189 108.226 166.085C108.027 165.978 107.812 165.865 107.581 165.748C107.337 165.624 107.109 165.499 106.897 165.372C106.686 165.245 106.502 165.105 106.346 164.952C106.189 164.799 106.066 164.627 105.975 164.435C105.887 164.239 105.843 164.011 105.843 163.751C105.843 163.432 105.913 163.155 106.053 162.921C106.193 162.683 106.377 162.488 106.604 162.335C106.832 162.182 107.091 162.068 107.381 161.993C107.674 161.918 107.972 161.881 108.274 161.881C108.965 161.881 109.467 161.964 109.783 162.13V163.053C109.37 162.766 108.839 162.623 108.191 162.623C108.012 162.623 107.833 162.643 107.654 162.682C107.475 162.717 107.316 162.778 107.176 162.862C107.036 162.947 106.922 163.056 106.834 163.189C106.746 163.323 106.702 163.486 106.702 163.678C106.702 163.857 106.735 164.011 106.8 164.142C106.868 164.272 106.967 164.391 107.098 164.498C107.228 164.605 107.386 164.71 107.571 164.811C107.76 164.911 107.977 165.022 108.221 165.143C108.471 165.266 108.709 165.396 108.934 165.533C109.158 165.67 109.355 165.821 109.524 165.987C109.694 166.153 109.827 166.337 109.925 166.539C110.026 166.741 110.076 166.972 110.076 167.232C110.076 167.577 110.008 167.87 109.871 168.111C109.738 168.349 109.555 168.543 109.324 168.692C109.096 168.842 108.833 168.95 108.533 169.015C108.234 169.083 107.918 169.117 107.586 169.117C107.475 169.117 107.339 169.107 107.176 169.088C107.013 169.072 106.847 169.046 106.678 169.01C106.508 168.977 106.347 168.937 106.194 168.888C106.045 168.836 105.924 168.779 105.833 168.717ZM112.293 169H111.473V161.998H112.293V169ZM119.783 169H118.777L115.174 163.419C115.083 163.279 115.008 163.132 114.949 162.979H114.92C114.946 163.129 114.959 163.45 114.959 163.941V169H114.139V161.998H115.203L118.709 167.491C118.855 167.719 118.95 167.875 118.992 167.96H119.012C118.979 167.758 118.963 167.415 118.963 166.93V161.998H119.783V169ZM127.996 169H124.363V161.998H125.184V168.258H127.996V169ZM129.891 169H129.07V161.998H129.891V169ZM134.559 169.117C133.569 169.117 132.773 168.79 132.171 168.136C131.575 167.481 131.277 166.63 131.277 165.582C131.277 164.452 131.582 163.554 132.19 162.887C132.802 162.216 133.631 161.881 134.676 161.881C135.639 161.881 136.417 162.206 137.01 162.857C137.602 163.508 137.898 164.36 137.898 165.411C137.898 166.554 137.596 167.457 136.99 168.121C136.847 168.281 136.694 168.417 136.531 168.531L138.499 169.942H137.01L135.691 168.956C135.346 169.063 134.969 169.117 134.559 169.117ZM134.617 162.623C133.882 162.623 133.284 162.888 132.825 163.419C132.366 163.95 132.137 164.646 132.137 165.509C132.137 166.368 132.36 167.063 132.806 167.594C133.255 168.118 133.839 168.38 134.559 168.38C135.327 168.38 135.932 168.129 136.375 167.628C136.818 167.127 137.039 166.425 137.039 165.523C137.039 164.596 136.824 163.881 136.395 163.38C135.965 162.875 135.372 162.623 134.617 162.623ZM144.397 166.168C144.397 168.134 143.51 169.117 141.736 169.117C140.037 169.117 139.188 168.172 139.188 166.28V161.998H140.008V166.227C140.008 167.662 140.613 168.38 141.824 168.38C142.993 168.38 143.577 167.687 143.577 166.3V161.998H144.397V166.168ZM146.971 169H146.15V161.998H146.971V169ZM148.816 169V161.998H150.75C153.217 161.998 154.451 163.136 154.451 165.411C154.451 166.492 154.108 167.361 153.421 168.019C152.737 168.673 151.821 169 150.672 169H148.816ZM149.637 162.74V168.258H150.682C151.6 168.258 152.314 168.012 152.825 167.521C153.336 167.029 153.592 166.332 153.592 165.431C153.592 163.637 152.638 162.74 150.73 162.74H149.637ZM161.004 169H160.096L159.354 167.037H156.385L155.687 169H154.773L157.459 161.998H158.309L161.004 169ZM159.085 166.3L157.986 163.316C157.951 163.219 157.915 163.062 157.879 162.848H157.859C157.827 163.046 157.789 163.202 157.747 163.316L156.658 166.3H159.085ZM166.609 168.707C166.092 168.98 165.447 169.117 164.676 169.117C163.68 169.117 162.882 168.797 162.283 168.155C161.684 167.514 161.385 166.673 161.385 165.631C161.385 164.511 161.722 163.606 162.396 162.916C163.069 162.226 163.924 161.881 164.959 161.881C165.623 161.881 166.173 161.977 166.609 162.169V163.043C166.108 162.763 165.555 162.623 164.949 162.623C164.145 162.623 163.493 162.892 162.991 163.429C162.493 163.966 162.244 164.684 162.244 165.582C162.244 166.435 162.477 167.115 162.942 167.623C163.411 168.128 164.025 168.38 164.783 168.38C165.486 168.38 166.095 168.224 166.609 167.911V168.707ZM168.855 169H168.035V161.998H168.855V169ZM173.523 169.117C172.531 169.117 171.735 168.79 171.136 168.136C170.54 167.481 170.242 166.63 170.242 165.582C170.242 164.456 170.547 163.557 171.155 162.887C171.764 162.216 172.592 161.881 173.641 161.881C174.607 161.881 175.385 162.206 175.975 162.857C176.567 163.508 176.863 164.36 176.863 165.411C176.863 166.554 176.561 167.457 175.955 168.121C175.35 168.785 174.539 169.117 173.523 169.117ZM173.582 162.623C172.846 162.623 172.249 162.888 171.79 163.419C171.331 163.95 171.102 164.646 171.102 165.509C171.102 166.371 171.325 167.066 171.771 167.594C172.22 168.118 172.804 168.38 173.523 168.38C174.292 168.38 174.897 168.129 175.34 167.628C175.783 167.127 176.004 166.425 176.004 165.523C176.004 164.599 175.789 163.884 175.359 163.38C174.93 162.875 174.337 162.623 173.582 162.623ZM183.885 169H182.879L179.275 163.419C179.184 163.279 179.109 163.132 179.051 162.979H179.021C179.048 163.129 179.061 163.45 179.061 163.941V169H178.24V161.998H179.305L182.811 167.491C182.957 167.719 183.051 167.875 183.094 167.96H183.113C183.081 167.758 183.064 167.415 183.064 166.93V161.998H183.885V169Z" fill="black"/>
</svg>
