<svg width="204" height="174" viewBox="0 0 204 174" fill="none" xmlns="http://www.w3.org/2000/svg">
<path fill-rule="evenodd" clip-rule="evenodd" d="M101.985 91H101.967C93.9098 91.0008 86.0011 88.8331 79.0705 84.7243L77.4307 83.7477L60.4062 88.2148L64.9456 71.6183L63.8786 69.9182C59.374 62.7468 56.9894 54.4477 57 45.979C57.0121 21.1776 77.1896 1.00011 102.003 1.00011C107.912 0.986981 113.766 2.14602 119.224 4.41016C124.683 6.67429 129.638 9.99854 133.803 14.1905C137.991 18.3625 141.31 23.3231 143.569 28.7856C145.828 34.2481 146.982 40.1041 146.964 46.0151C146.952 70.8165 126.774 91 101.985 91ZM126.66 57.3066C125.303 56.6253 118.66 53.3579 117.418 52.9057C116.182 52.4536 115.284 52.2305 114.38 53.5809C113.475 54.9313 110.883 57.9757 110.093 58.88C109.304 59.7843 108.514 59.8928 107.163 59.2176C105.813 58.5424 101.454 57.1136 96.288 52.5079C92.2669 48.9209 89.5541 44.4959 88.7643 43.1395C87.9746 41.7831 88.6799 41.0537 89.3612 40.3785C89.9701 39.7756 90.7116 38.799 91.3868 38.0092C92.062 37.2195 92.285 36.6589 92.7371 35.7546C93.1893 34.8503 92.9662 34.0606 92.6226 33.3854C92.285 32.7041 89.5782 26.0486 88.4509 23.3418C87.3597 20.7194 86.2444 21.0691 85.4125 21.0329C84.5509 20.9977 83.6886 20.9816 82.8262 20.9847C82.1405 21.0022 81.4658 21.1611 80.8444 21.4516C80.223 21.742 79.6684 22.1578 79.2152 22.6727C77.9733 24.0291 74.4828 27.2966 74.4828 33.952C74.4828 40.6075 79.3297 47.04 80.0049 47.9443C80.6801 48.8485 89.542 62.5031 103.106 68.3629C106.338 69.7555 108.857 70.5874 110.817 71.2144C114.054 72.2453 117.002 72.0945 119.335 71.7509C121.933 71.3651 127.335 68.4834 128.462 65.3245C129.59 62.1656 129.59 59.4587 129.252 58.8921C128.914 58.3254 128.004 57.9818 126.66 57.3066Z" stroke="black" stroke-width="1.5"/>
<path d="M44.0098 116.781H41.5957V124H40.2012V116.781H37.793V115.598H44.0098V116.781ZM49.957 124H45.2402V115.598H49.7695V116.781H46.6348V119.16H49.5234V120.338H46.6348V122.822H49.957V124ZM58.5762 124H57.0527L53.0391 117.824C52.9375 117.668 52.8535 117.506 52.7871 117.338H52.752C52.7832 117.518 52.7988 117.902 52.7988 118.492V124H51.4512V115.598H53.0742L56.9531 121.627C57.1172 121.877 57.2227 122.049 57.2695 122.143H57.293C57.2539 121.92 57.2344 121.543 57.2344 121.012V115.598H58.5762V124ZM65.3789 124H60.6621V115.598H65.1914V116.781H62.0566V119.16H64.9453V120.338H62.0566V122.822H65.3789V124ZM66.4863 123.666V122.23C66.6152 122.348 66.7676 122.453 66.9434 122.547C67.123 122.641 67.3125 122.721 67.5117 122.787C67.7109 122.85 67.9102 122.898 68.1094 122.934C68.3086 122.969 68.4922 122.986 68.6602 122.986C69.2461 122.986 69.6816 122.889 69.9668 122.693C70.2559 122.498 70.4004 122.215 70.4004 121.844C70.4004 121.645 70.3516 121.473 70.2539 121.328C70.1602 121.18 70.0273 121.045 69.8555 120.924C69.6836 120.803 69.4805 120.688 69.2461 120.578C69.0156 120.465 68.7676 120.348 68.502 120.227C68.2168 120.074 67.9512 119.92 67.7051 119.764C67.459 119.607 67.2441 119.436 67.0605 119.248C66.8809 119.057 66.7383 118.842 66.6328 118.604C66.5312 118.365 66.4805 118.086 66.4805 117.766C66.4805 117.371 66.5684 117.029 66.7441 116.74C66.9238 116.447 67.1582 116.207 67.4473 116.02C67.7402 115.828 68.0723 115.688 68.4434 115.598C68.8145 115.504 69.1934 115.457 69.5801 115.457C70.459 115.457 71.0996 115.557 71.502 115.756V117.133C71.0254 116.789 70.4121 116.617 69.6621 116.617C69.4551 116.617 69.248 116.637 69.041 116.676C68.8379 116.715 68.6543 116.779 68.4902 116.869C68.3301 116.959 68.1992 117.074 68.0977 117.215C67.9961 117.355 67.9453 117.525 67.9453 117.725C67.9453 117.912 67.9844 118.074 68.0625 118.211C68.1406 118.348 68.2539 118.473 68.4023 118.586C68.5547 118.699 68.7383 118.811 68.9531 118.92C69.1719 119.025 69.4238 119.141 69.709 119.266C70.002 119.418 70.2773 119.578 70.5352 119.746C70.7969 119.914 71.0254 120.1 71.2207 120.303C71.4199 120.506 71.5762 120.732 71.6895 120.982C71.8066 121.229 71.8652 121.51 71.8652 121.826C71.8652 122.252 71.7793 122.611 71.6074 122.904C71.4355 123.197 71.2031 123.436 70.9102 123.619C70.6211 123.803 70.2871 123.936 69.9082 124.018C69.5293 124.1 69.1289 124.141 68.707 124.141C68.5664 124.141 68.3926 124.129 68.1855 124.105C67.9824 124.086 67.7734 124.055 67.5586 124.012C67.3438 123.973 67.1406 123.924 66.9492 123.865C66.7578 123.807 66.6035 123.74 66.4863 123.666ZM83.6191 124H82.0898L81.334 121.861H78.0293L77.3027 124H75.7793L78.9258 115.598H80.4961L83.6191 124ZM80.9648 120.725L79.7988 117.373C79.7637 117.264 79.7266 117.088 79.6875 116.846H79.6641C79.6289 117.068 79.5898 117.244 79.5469 117.373L78.3926 120.725H80.9648ZM89.4316 124H84.7793V115.598H86.1738V122.822H89.4316V124ZM96.8555 123.426C95.9805 123.902 95.0059 124.141 93.9316 124.141C92.6895 124.141 91.6836 123.754 90.9141 122.98C90.1445 122.207 89.7598 121.184 89.7598 119.91C89.7598 118.609 90.1797 117.543 91.0195 116.711C91.8633 115.875 92.9336 115.457 94.2305 115.457C95.1641 115.457 95.9492 115.594 96.5859 115.867V117.303C95.9414 116.873 95.1738 116.658 94.2832 116.658C93.3887 116.658 92.6543 116.953 92.0801 117.543C91.5098 118.133 91.2246 118.896 91.2246 119.834C91.2246 120.799 91.4707 121.559 91.9629 122.113C92.4551 122.664 93.123 122.939 93.9668 122.939C94.5449 122.939 95.0449 122.828 95.4668 122.605V120.607H93.6973V119.436H96.8555V123.426ZM105.129 120.602C105.129 122.961 104.012 124.141 101.777 124.141C99.6367 124.141 98.5664 123.006 98.5664 120.736V115.598H99.9609V120.449C99.9609 122.098 100.602 122.922 101.883 122.922C103.117 122.922 103.734 122.127 103.734 120.537V115.598H105.129V120.602ZM114.229 124H112.705L108.691 117.824C108.59 117.668 108.506 117.506 108.439 117.338H108.404C108.436 117.518 108.451 117.902 108.451 118.492V124H107.104V115.598H108.727L112.605 121.627C112.77 121.877 112.875 122.049 112.922 122.143H112.945C112.906 121.92 112.887 121.543 112.887 121.012V115.598H114.229V124ZM123.217 124H121.688L120.932 121.861H117.627L116.9 124H115.377L118.523 115.598H120.094L123.217 124ZM120.562 120.725L119.396 117.373C119.361 117.264 119.324 117.088 119.285 116.846H119.262C119.227 117.068 119.188 117.244 119.145 117.373L117.99 120.725H120.562ZM127.682 124V115.598H130.107C133.205 115.598 134.754 116.963 134.754 119.693C134.754 120.99 134.324 122.033 133.465 122.822C132.605 123.607 131.453 124 130.008 124H127.682ZM129.07 116.781V122.822H130.184C131.164 122.822 131.926 122.553 132.469 122.014C133.016 121.475 133.289 120.713 133.289 119.729C133.289 117.764 132.271 116.781 130.236 116.781H129.07ZM142.758 120.602C142.758 122.961 141.641 124.141 139.406 124.141C137.266 124.141 136.195 123.006 136.195 120.736V115.598H137.59V120.449C137.59 122.098 138.23 122.922 139.512 122.922C140.746 122.922 141.363 122.127 141.363 120.537V115.598H142.758V120.602ZM144.732 124V115.598H147.158C150.256 115.598 151.805 116.963 151.805 119.693C151.805 120.99 151.375 122.033 150.516 122.822C149.656 123.607 148.504 124 147.059 124H144.732ZM146.121 116.781V122.822H147.234C148.215 122.822 148.977 122.553 149.52 122.014C150.066 121.475 150.34 120.713 150.34 119.729C150.34 117.764 149.322 116.781 147.287 116.781H146.121ZM160.061 124H158.531L157.775 121.861H154.471L153.744 124H152.221L155.367 115.598H156.938L160.061 124ZM157.406 120.725L156.24 117.373C156.205 117.264 156.168 117.088 156.129 116.846H156.105C156.07 117.068 156.031 117.244 155.988 117.373L154.834 120.725H157.406ZM161.959 121.627C161.924 121.529 161.893 121.402 161.865 121.246C161.838 121.09 161.824 120.936 161.824 120.783C161.824 120.545 161.871 120.33 161.965 120.139C162.062 119.943 162.182 119.762 162.322 119.594C162.467 119.426 162.621 119.264 162.785 119.107C162.953 118.951 163.107 118.799 163.248 118.65C163.393 118.502 163.512 118.346 163.605 118.182C163.703 118.018 163.752 117.838 163.752 117.643C163.752 117.467 163.717 117.314 163.646 117.186C163.576 117.053 163.479 116.943 163.354 116.857C163.232 116.768 163.092 116.701 162.932 116.658C162.775 116.615 162.607 116.594 162.428 116.594C161.846 116.594 161.291 116.854 160.764 117.373V116.02C161.404 115.645 162.068 115.457 162.756 115.457C163.072 115.457 163.371 115.498 163.652 115.58C163.934 115.662 164.18 115.783 164.391 115.943C164.602 116.104 164.768 116.303 164.889 116.541C165.01 116.779 165.07 117.057 165.07 117.373C165.07 117.674 165.02 117.941 164.918 118.176C164.816 118.41 164.688 118.627 164.531 118.826C164.379 119.021 164.213 119.195 164.033 119.348C163.857 119.5 163.691 119.652 163.535 119.805C163.383 119.957 163.256 120.115 163.154 120.279C163.053 120.443 163.002 120.625 163.002 120.824C163.002 120.992 163.023 121.145 163.066 121.281C163.109 121.418 163.152 121.533 163.195 121.627H161.959ZM162.627 124.105C162.404 124.105 162.207 124.029 162.035 123.877C161.871 123.729 161.789 123.545 161.789 123.326C161.789 123.104 161.871 122.92 162.035 122.775C162.203 122.619 162.4 122.541 162.627 122.541C162.85 122.541 163.045 122.619 163.213 122.775C163.377 122.92 163.459 123.104 163.459 123.326C163.459 123.545 163.377 123.729 163.213 123.877C163.041 124.029 162.846 124.105 162.627 124.105ZM47.3662 153H46.5459V149.807H42.9229V153H42.1025V145.998H42.9229V149.069H46.5459V145.998H47.3662V153ZM54.6221 153H53.7139L52.9717 151.037H50.0029L49.3047 153H48.3916L51.0771 145.998H51.9268L54.6221 153ZM52.7031 150.3L51.6045 147.316C51.5687 147.219 51.5329 147.062 51.4971 146.848H51.4775C51.445 147.046 51.4076 147.202 51.3652 147.316L50.2764 150.3H52.7031ZM55.6572 153V145.998H57.6494C58.2549 145.998 58.735 146.146 59.0898 146.442C59.4447 146.739 59.6221 147.124 59.6221 147.6C59.6221 147.997 59.5146 148.342 59.2998 148.635C59.085 148.928 58.7887 149.136 58.4111 149.26V149.279C58.8831 149.335 59.2607 149.514 59.5439 149.816C59.8271 150.116 59.9688 150.507 59.9688 150.988C59.9688 151.587 59.7539 152.072 59.3242 152.443C58.8945 152.814 58.3525 153 57.6982 153H55.6572ZM56.4775 146.74V149.001H57.3174C57.7666 149.001 58.1198 148.894 58.377 148.679C58.6341 148.461 58.7627 148.155 58.7627 147.761C58.7627 147.08 58.3151 146.74 57.4199 146.74H56.4775ZM56.4775 149.738V152.258H57.5908C58.0726 152.258 58.4453 152.144 58.709 151.916C58.9759 151.688 59.1094 151.376 59.1094 150.979C59.1094 150.152 58.5462 149.738 57.4199 149.738H56.4775ZM65.0225 153H61.3896V145.998H62.21V152.258H65.0225V153ZM71.8096 153H70.9014L70.1592 151.037H67.1904L66.4922 153H65.5791L68.2646 145.998H69.1143L71.8096 153ZM69.8906 150.3L68.792 147.316C68.7562 147.219 68.7204 147.062 68.6846 146.848H68.665C68.6325 147.046 68.5951 147.202 68.5527 147.316L67.4639 150.3H69.8906ZM78.4893 153H77.4834L73.8799 147.419C73.7887 147.279 73.7139 147.132 73.6553 146.979H73.626C73.652 147.129 73.665 147.45 73.665 147.941V153H72.8447V145.998H73.9092L77.415 151.491C77.5615 151.719 77.6559 151.875 77.6982 151.96H77.7178C77.6852 151.758 77.6689 151.415 77.6689 150.93V145.998H78.4893V153ZM83.1475 153.117C82.1546 153.117 81.3587 152.79 80.7598 152.136C80.1641 151.481 79.8662 150.63 79.8662 149.582C79.8662 148.456 80.1706 147.557 80.7793 146.887C81.388 146.216 82.2165 145.881 83.2646 145.881C84.2314 145.881 85.0094 146.206 85.5986 146.857C86.1911 147.508 86.4873 148.36 86.4873 149.411C86.4873 150.554 86.1846 151.457 85.5791 152.121C84.9736 152.785 84.1631 153.117 83.1475 153.117ZM83.2061 146.623C82.4704 146.623 81.873 146.888 81.4141 147.419C80.9551 147.95 80.7256 148.646 80.7256 149.509C80.7256 150.371 80.9486 151.066 81.3945 151.594C81.8438 152.118 82.4281 152.38 83.1475 152.38C83.9157 152.38 84.5212 152.129 84.9639 151.628C85.4066 151.127 85.6279 150.425 85.6279 149.523C85.6279 148.599 85.4131 147.884 84.9834 147.38C84.5537 146.875 83.9613 146.623 83.2061 146.623ZM87.5371 152.717V151.75C87.6478 151.848 87.7796 151.936 87.9326 152.014C88.0889 152.092 88.2516 152.159 88.4209 152.214C88.5934 152.266 88.766 152.307 88.9385 152.336C89.111 152.365 89.2705 152.38 89.417 152.38C89.9215 152.38 90.2975 152.287 90.5449 152.102C90.7956 151.913 90.9209 151.643 90.9209 151.291C90.9209 151.102 90.8786 150.938 90.7939 150.798C90.7126 150.658 90.5986 150.531 90.4521 150.417C90.3057 150.3 90.1315 150.189 89.9297 150.085C89.7311 149.978 89.5163 149.865 89.2852 149.748C89.041 149.624 88.8132 149.499 88.6016 149.372C88.39 149.245 88.2061 149.105 88.0498 148.952C87.8936 148.799 87.7699 148.627 87.6787 148.435C87.5908 148.239 87.5469 148.011 87.5469 147.751C87.5469 147.432 87.6169 147.155 87.7568 146.921C87.8968 146.683 88.0807 146.488 88.3086 146.335C88.5365 146.182 88.7952 146.068 89.085 145.993C89.3779 145.918 89.6758 145.881 89.9785 145.881C90.6686 145.881 91.1715 145.964 91.4873 146.13V147.053C91.0739 146.766 90.5433 146.623 89.8955 146.623C89.7165 146.623 89.5374 146.643 89.3584 146.682C89.1794 146.717 89.0199 146.778 88.8799 146.862C88.7399 146.947 88.626 147.056 88.5381 147.189C88.4502 147.323 88.4062 147.486 88.4062 147.678C88.4062 147.857 88.4388 148.011 88.5039 148.142C88.5723 148.272 88.6715 148.391 88.8018 148.498C88.932 148.605 89.0898 148.71 89.2754 148.811C89.4642 148.911 89.6807 149.022 89.9248 149.143C90.1755 149.266 90.4131 149.396 90.6377 149.533C90.8623 149.67 91.0592 149.821 91.2285 149.987C91.3978 150.153 91.5312 150.337 91.6289 150.539C91.7298 150.741 91.7803 150.972 91.7803 151.232C91.7803 151.577 91.7119 151.87 91.5752 152.111C91.4417 152.349 91.2594 152.543 91.0283 152.692C90.8005 152.842 90.5368 152.95 90.2373 153.015C89.9378 153.083 89.6221 153.117 89.29 153.117C89.1794 153.117 89.0426 153.107 88.8799 153.088C88.7171 153.072 88.5511 153.046 88.3818 153.01C88.2126 152.977 88.0514 152.937 87.8984 152.888C87.7487 152.836 87.6283 152.779 87.5371 152.717ZM101.341 153H100.433L99.6904 151.037H96.7217L96.0234 153H95.1104L97.7959 145.998H98.6455L101.341 153ZM99.4219 150.3L98.3232 147.316C98.2874 147.219 98.2516 147.062 98.2158 146.848H98.1963C98.1637 147.046 98.1263 147.202 98.084 147.316L96.9951 150.3H99.4219ZM106.009 153H102.376V145.998H103.196V152.258H106.009V153ZM112.444 153H111.644V146.95C111.582 147.012 111.491 147.084 111.37 147.165C111.253 147.243 111.119 147.321 110.97 147.399C110.823 147.478 110.667 147.551 110.501 147.619C110.338 147.688 110.179 147.741 110.022 147.78V146.97C110.198 146.921 110.384 146.856 110.579 146.774C110.778 146.69 110.971 146.597 111.16 146.496C111.352 146.392 111.533 146.285 111.702 146.174C111.871 146.06 112.018 145.949 112.142 145.842H112.444V153ZM117.835 153H117.034V146.95C116.972 147.012 116.881 147.084 116.761 147.165C116.644 147.243 116.51 147.321 116.36 147.399C116.214 147.478 116.058 147.551 115.892 147.619C115.729 147.688 115.569 147.741 115.413 147.78V146.97C115.589 146.921 115.774 146.856 115.97 146.774C116.168 146.69 116.362 146.597 116.551 146.496C116.743 146.392 116.924 146.285 117.093 146.174C117.262 146.06 117.409 145.949 117.532 145.842H117.835V153ZM123.226 153H122.425V146.95C122.363 147.012 122.272 147.084 122.151 147.165C122.034 147.243 121.901 147.321 121.751 147.399C121.604 147.478 121.448 147.551 121.282 147.619C121.119 147.688 120.96 147.741 120.804 147.78V146.97C120.979 146.921 121.165 146.856 121.36 146.774C121.559 146.69 121.753 146.597 121.941 146.496C122.133 146.392 122.314 146.285 122.483 146.174C122.653 146.06 122.799 145.949 122.923 145.842H123.226V153ZM128.616 153H127.815V146.95C127.754 147.012 127.662 147.084 127.542 147.165C127.425 147.243 127.291 147.321 127.142 147.399C126.995 147.478 126.839 147.551 126.673 147.619C126.51 147.688 126.351 147.741 126.194 147.78V146.97C126.37 146.921 126.556 146.856 126.751 146.774C126.95 146.69 127.143 146.597 127.332 146.496C127.524 146.392 127.705 146.285 127.874 146.174C128.043 146.06 128.19 145.949 128.313 145.842H128.616V153ZM134.007 153H133.206V146.95C133.144 147.012 133.053 147.084 132.933 147.165C132.815 147.243 132.682 147.321 132.532 147.399C132.386 147.478 132.229 147.551 132.063 147.619C131.901 147.688 131.741 147.741 131.585 147.78V146.97C131.761 146.921 131.946 146.856 132.142 146.774C132.34 146.69 132.534 146.597 132.723 146.496C132.915 146.392 133.095 146.285 133.265 146.174C133.434 146.06 133.58 145.949 133.704 145.842H134.007V153ZM139.397 153H138.597V146.95C138.535 147.012 138.444 147.084 138.323 147.165C138.206 147.243 138.073 147.321 137.923 147.399C137.776 147.478 137.62 147.551 137.454 147.619C137.291 147.688 137.132 147.741 136.976 147.78V146.97C137.151 146.921 137.337 146.856 137.532 146.774C137.731 146.69 137.924 146.597 138.113 146.496C138.305 146.392 138.486 146.285 138.655 146.174C138.825 146.06 138.971 145.949 139.095 145.842H139.397V153ZM144.788 153H143.987V146.95C143.925 147.012 143.834 147.084 143.714 147.165C143.597 147.243 143.463 147.321 143.313 147.399C143.167 147.478 143.011 147.551 142.845 147.619C142.682 147.688 142.522 147.741 142.366 147.78V146.97C142.542 146.921 142.728 146.856 142.923 146.774C143.121 146.69 143.315 146.597 143.504 146.496C143.696 146.392 143.877 146.285 144.046 146.174C144.215 146.06 144.362 145.949 144.485 145.842H144.788V153ZM150.179 153H149.378V146.95C149.316 147.012 149.225 147.084 149.104 147.165C148.987 147.243 148.854 147.321 148.704 147.399C148.558 147.478 148.401 147.551 148.235 147.619C148.073 147.688 147.913 147.741 147.757 147.78V146.97C147.933 146.921 148.118 146.856 148.313 146.774C148.512 146.69 148.706 146.597 148.895 146.496C149.087 146.392 149.267 146.285 149.437 146.174C149.606 146.06 149.752 145.949 149.876 145.842H150.179V153ZM155.569 153H154.769V146.95C154.707 147.012 154.616 147.084 154.495 147.165C154.378 147.243 154.244 147.321 154.095 147.399C153.948 147.478 153.792 147.551 153.626 147.619C153.463 147.688 153.304 147.741 153.147 147.78V146.97C153.323 146.921 153.509 146.856 153.704 146.774C153.903 146.69 154.096 146.597 154.285 146.496C154.477 146.392 154.658 146.285 154.827 146.174C154.996 146.06 155.143 145.949 155.267 145.842H155.569V153ZM160.96 153H160.159V146.95C160.097 147.012 160.006 147.084 159.886 147.165C159.769 147.243 159.635 147.321 159.485 147.399C159.339 147.478 159.183 147.551 159.017 147.619C158.854 147.688 158.694 147.741 158.538 147.78V146.97C158.714 146.921 158.899 146.856 159.095 146.774C159.293 146.69 159.487 146.597 159.676 146.496C159.868 146.392 160.049 146.285 160.218 146.174C160.387 146.06 160.534 145.949 160.657 145.842H160.96V153Z" fill="black"/>
</svg>
