<svg width="19" height="19" viewBox="0 0 19 19" fill="none" xmlns="http://www.w3.org/2000/svg">
<path fill-rule="evenodd" clip-rule="evenodd" d="M9.58548 18.516H9.58187C7.97046 18.5162 6.38872 18.0826 5.0026 17.2609L4.67464 17.0655L1.26973 17.959L2.17763 14.6396L1.96422 14.2996C1.0633 12.8654 0.586378 11.2055 0.588508 9.51178C0.590919 4.55151 4.62642 0.516013 9.5891 0.516013C10.771 0.513387 11.9417 0.745196 13.0334 1.19802C14.1251 1.65085 15.1161 2.3157 15.9492 3.1541C16.7867 3.9885 17.4505 4.98061 17.9023 6.07311C18.3541 7.1656 18.5848 8.3368 18.5813 9.51902C18.5788 14.4793 14.5433 18.516 9.58548 18.516ZM14.5204 11.7773C14.2492 11.6411 12.9205 10.9876 12.6721 10.8971C12.4249 10.8067 12.2453 10.7621 12.0644 11.0322C11.8836 11.3023 11.3651 11.9111 11.2072 12.092C11.0492 12.2728 10.8913 12.2946 10.6212 12.1595C10.3511 12.0245 9.47938 11.7387 8.44609 10.8176C7.64189 10.1002 7.09932 9.21518 6.94137 8.94389C6.78342 8.67261 6.92449 8.52672 7.06074 8.39168C7.18251 8.27111 7.33081 8.07579 7.46585 7.91784C7.60089 7.75989 7.6455 7.64776 7.73593 7.46691C7.82636 7.28605 7.78175 7.1281 7.71302 6.99306C7.6455 6.85682 7.10414 5.52572 6.87867 4.98436C6.66044 4.45988 6.43739 4.52981 6.271 4.52257C6.09868 4.51552 5.92622 4.51231 5.75375 4.51293C5.61661 4.51642 5.48167 4.54821 5.35739 4.60631C5.23311 4.6644 5.12217 4.74754 5.03153 4.85052C4.78316 5.12181 4.08505 5.7753 4.08505 7.1064C4.08505 8.4375 5.05444 9.72399 5.18948 9.90484C5.32452 10.0857 7.09691 12.8166 9.80975 13.9886C10.456 14.2671 10.96 14.4335 11.3518 14.5589C11.9993 14.765 12.5889 14.7349 13.0555 14.6662C13.5752 14.589 14.6555 14.0127 14.8809 13.3809C15.1064 12.7491 15.1064 12.2077 15.0389 12.0944C14.9714 11.9811 14.7893 11.9123 14.5204 11.7773Z" stroke="black" stroke-width="0.5"/>
</svg>
