<svg width="19" height="13" viewBox="0 0 19 13" fill="none" xmlns="http://www.w3.org/2000/svg">
<path d="M17.8854 5.45833H1.11458C0.568052 5.45833 0.125 5.90139 0.125 6.44792V6.55208C0.125 7.09862 0.568052 7.54167 1.11458 7.54167H17.8854C18.4319 7.54167 18.875 7.09862 18.875 6.55208V6.44792C18.875 5.90139 18.4319 5.45833 17.8854 5.45833Z" fill="black"/>
<path d="M17.8854 10.6667H1.11458C0.568052 10.6667 0.125 11.1097 0.125 11.6563V11.7604C0.125 12.3069 0.568052 12.75 1.11458 12.75H17.8854C18.4319 12.75 18.875 12.3069 18.875 11.7604V11.6563C18.875 11.1097 18.4319 10.6667 17.8854 10.6667Z" fill="black"/>
<path d="M17.8854 0.25H1.11458C0.568052 0.25 0.125 0.693051 0.125 1.23958V1.34375C0.125 1.89028 0.568052 2.33333 1.11458 2.33333H17.8854C18.4319 2.33333 18.875 1.89028 18.875 1.34375V1.23958C18.875 0.693051 18.4319 0.25 17.8854 0.25Z" fill="black"/>
</svg>
